<svg
   version="1.0"
   width="300.000000pt"
   height="400.000000pt"
   viewBox="0 0 300.000000 400.000000"
   preserveAspectRatio="xMidYMid meet"
   id="svg103"
   xmlns="http://www.w3.org/2000/svg">
  <g
     transform="matrix(-0.1,0,0,-0.1,301.5,400)"
     fill="#000098"
     stroke="none"
     id="g83">
    <path
       d="m 1078,3833 c -21,-21 -57,-80 -81,-133 l -44,-95 -36,70 c -19,39 -51,85 -71,104 -35,34 -35,34 -108,28 -59,-4 -87,-13 -146,-45 -41,-21 -91,-55 -112,-74 -76,-72 -144,-237 -155,-378 -4,-47 -14,-106 -22,-132 -13,-42 -14,-51 -1,-70 8,-13 18,-45 21,-73 9,-72 153,-345 231,-441 14,-18 26,-37 26,-43 0,-16 -47,-100 -70,-126 -9,-11 -21,-33 -24,-50 -4,-16 -18,-52 -30,-80 -13,-27 -29,-68 -36,-90 -7,-22 -30,-75 -51,-117 -22,-43 -39,-89 -39,-103 0,-13 -7,-42 -15,-62 -8,-21 -19,-96 -24,-168 -5,-71 -15,-151 -22,-177 -11,-42 -10,-52 6,-88 14,-30 18,-64 17,-142 0,-60 5,-109 11,-116 25,-31 126,-72 179,-72 31,-1 61,-7 72,-15 12,-9 42,-15 76,-15 32,0 64,-6 76,-14 11,-8 43,-16 70,-18 35,-2 50,-7 52,-19 2,-14 -14,-16 -131,-15 -90,1 -139,-3 -149,-11 -8,-7 -34,-15 -58,-19 -48,-7 -172,-65 -205,-94 -11,-10 -33,-26 -50,-34 -22,-11 -34,-29 -47,-68 -10,-29 -18,-61 -18,-71 0,-10 -7,-32 -16,-49 -11,-22 -13,-33 -5,-41 14,-14 14,-50 -1,-65 -8,-8 -8,-15 0,-25 6,-7 14,-44 18,-82 7,-73 35,-145 57,-145 7,0 28,-13 47,-29 57,-47 150,-88 213,-94 54,-5 88,-14 177,-47 72,-27 437,-37 865,-25 272,7 283,8 367,36 60,20 107,29 153,29 69,0 121,16 144,43 7,10 26,17 42,17 62,0 141,107 155,209 4,28 10,54 15,56 4,3 1,18 -7,33 -8,17 -14,57 -14,107 0,71 -4,89 -35,153 -36,75 -69,105 -130,118 -45,9 -146,43 -159,53 -6,4 -42,11 -81,15 -38,4 -73,12 -77,19 -5,9 -44,11 -136,9 -137,-2 -158,4 -150,45 3,15 18,19 83,25 126,12 139,14 155,20 8,4 49,9 90,11 62,4 87,12 145,42 39,21 91,58 118,83 l 47,46 v 117 c 0,93 -5,137 -24,207 -29,108 -133,319 -187,381 -22,24 -39,47 -39,52 0,4 -22,34 -50,65 -27,31 -50,61 -50,65 0,4 -25,36 -56,71 -53,61 -134,201 -134,233 0,24 28,29 63,12 46,-22 127,-37 245,-47 56,-4 108,-12 115,-18 6,-5 68,-12 137,-14 75,-2 134,-9 149,-17 15,-9 68,-13 160,-13 123,-1 141,2 186,23 65,31 96,90 103,196 l 5,72 -52,53 -52,53 29,26 c 18,16 32,41 36,65 4,21 14,47 21,57 14,21 10,72 -7,94 -6,8 -4,20 6,35 50,70 -12,168 -130,207 -37,12 -75,26 -85,32 -10,5 -108,10 -220,10 -165,0 -205,-3 -225,-16 -34,-22 -157,-21 -195,2 -28,17 -31,17 -60,0 -23,-12 -53,-17 -118,-17 -61,0 -93,-4 -107,-15 -25,-19 -88,-19 -104,0 -9,11 -32,15 -82,15 -46,0 -70,4 -72,13 -6,22 -28,131 -41,202 -7,39 -32,129 -56,200 l -44,130 -100,3 -100,3 z m 52,-203 c 1,-14 7,-36 15,-50 8,-14 14,-41 15,-60 0,-19 6,-47 14,-62 22,-41 30,-106 16,-123 -13,-15 -84,-21 -115,-9 -28,11 -75,118 -75,173 0,44 34,135 74,199 11,18 56,-35 56,-68 z M 669,3530 c 30,-58 67,-141 82,-185 l 27,-80 132,-3 c 97,-2 138,-7 153,-17 13,-9 44,-15 77,-15 31,0 64,-6 75,-14 11,-7 62,-16 115,-19 52,-4 115,-14 140,-23 52,-19 205,-13 243,8 16,9 83,13 232,13 172,1 219,4 258,18 26,9 60,17 75,17 15,0 36,7 46,15 30,23 55,18 62,-11 10,-39 -1,-223 -15,-237 -6,-6 -11,-23 -11,-38 0,-15 -12,-41 -26,-58 l -26,-31 h -176 c -153,0 -178,2 -195,18 -17,15 -41,17 -235,14 -119,-2 -218,-5 -220,-7 -2,-2 -1,-8 3,-14 4,-7 51,-11 123,-11 87,-1 122,-4 136,-15 14,-10 45,-15 96,-15 51,0 82,-5 96,-15 15,-11 58,-14 210,-15 h 191 l 27,-26 c 25,-26 26,-31 26,-139 0,-81 -4,-116 -13,-123 -17,-14 -226,-5 -245,10 -7,6 -60,14 -117,17 -63,4 -109,11 -117,19 -7,7 -40,12 -88,12 -47,0 -83,5 -95,14 -11,7 -58,16 -104,20 -46,4 -93,12 -105,19 -32,18 -367,12 -378,-6 -6,-11 -43,-14 -186,-13 l -179,1 -67,35 c -45,23 -76,47 -91,70 -12,19 -34,45 -47,58 -13,12 -51,77 -84,144 l -59,122 v 107 c 0,121 12,155 58,167 17,4 33,14 37,22 4,8 12,25 19,38 15,29 16,143 1,171 -10,19 -7,26 24,57 20,20 41,34 48,32 7,-2 37,-51 67,-108 z m -185,-95 c 9,-26 -5,-72 -30,-96 -29,-27 -33,-9 -9,37 8,16 15,39 15,52 0,25 15,30 24,7 z m 742,-900 c 37,28 48,17 114,-115 55,-110 77,-143 143,-211 42,-44 100,-115 127,-157 27,-43 59,-90 72,-106 12,-16 33,-52 45,-79 13,-27 37,-65 53,-84 17,-18 30,-45 30,-59 0,-13 14,-50 30,-81 17,-32 30,-71 30,-91 0,-20 10,-55 21,-80 27,-54 22,-134 -11,-202 -39,-79 -41,-80 -155,-80 -79,0 -105,-3 -115,-15 -18,-22 -362,-22 -380,0 -14,17 -51,20 -66,5 -20,-20 -102,-24 -128,-6 -33,21 -119,22 -136,1 -16,-20 -98,-19 -124,0 -14,10 -45,15 -98,15 -71,0 -80,2 -110,29 -18,15 -47,35 -64,44 -51,26 -114,102 -115,139 -1,43 -6,75 -20,119 -8,27 -8,42 0,57 6,12 14,66 18,119 9,150 98,495 159,621 27,53 57,107 67,119 11,12 25,33 31,45 6,13 30,33 52,45 37,21 56,23 232,25 135,2 195,7 204,16 9,9 18,6 43,-18 28,-27 33,-29 51,-15 z m 52,-1444 c 13,-8 13,-28 0,-188 -2,-17 -6,-35 -11,-39 -4,-4 0,-16 10,-26 9,-10 14,-21 10,-24 -3,-3 -51,-6 -107,-6 -78,1 -106,5 -119,16 -10,9 -34,16 -54,16 -45,0 -83,14 -90,34 -4,9 -9,56 -13,106 -5,66 -4,94 6,105 10,12 42,15 184,15 94,0 177,-4 184,-9 z m 562,-81 c 41,-7 96,-18 122,-26 26,-8 54,-14 63,-14 9,0 30,-13 46,-29 18,-18 44,-32 70,-36 47,-8 75,-32 85,-71 15,-58 -40,-82 -65,-29 -7,17 -27,44 -43,61 -26,28 -37,32 -99,36 -38,3 -74,10 -81,15 -16,13 -68,22 -85,16 -25,-10 -13,-21 28,-28 22,-4 53,-13 67,-21 15,-8 41,-14 57,-14 17,0 50,-10 75,-23 38,-19 45,-27 48,-56 4,-37 -28,-81 -59,-81 -10,0 -34,-14 -54,-31 -28,-25 -46,-32 -97,-36 -35,-3 -67,-9 -73,-13 -5,-4 -41,-11 -80,-15 -38,-4 -75,-11 -82,-17 -7,-5 -40,-12 -74,-15 -38,-4 -63,-11 -66,-19 -7,-19 -77,-18 -93,1 -16,19 -39,19 -60,0 -24,-22 -149,-24 -164,-3 -10,14 -44,17 -241,20 -148,2 -237,7 -250,14 -11,7 -45,17 -75,23 -30,7 -66,14 -79,18 -14,3 -26,1 -31,-7 -6,-10 -20,-7 -61,12 -30,14 -66,28 -80,31 -14,4 -46,15 -71,27 -34,15 -47,26 -51,47 -5,27 4,92 17,123 12,28 70,58 186,96 105,35 124,39 223,38 84,0 110,-3 117,-14 6,-8 10,-45 10,-82 v -68 l 53,-26 c 50,-26 113,-44 227,-65 30,-5 66,-17 79,-26 22,-14 27,-14 50,0 14,8 48,18 74,21 27,4 95,30 153,58 l 104,51 v 47 c 0,25 -7,55 -15,66 -8,10 -15,29 -15,42 0,23 0,23 108,19 59,-3 141,-10 182,-17 z M 413,600 c 24,-13 57,-20 94,-20 35,-1 66,-6 77,-15 11,-8 31,-15 46,-15 14,0 34,-6 45,-14 11,-7 57,-15 103,-18 45,-3 88,-10 94,-16 15,-15 184,-16 193,-2 9,14 48,13 63,-2 10,-10 17,-10 33,1 15,9 24,10 32,2 16,-16 52,-13 67,4 16,19 60,19 86,0 24,-18 77,-19 112,-1 36,18 431,22 463,5 28,-14 68,-60 69,-76 0,-7 -9,-13 -19,-13 -23,0 -40,-22 -23,-28 34,-11 -7,-58 -73,-84 -43,-17 -132,-44 -180,-53 -16,-4 -43,-11 -58,-17 -21,-8 -34,-8 -52,2 -18,10 -28,10 -38,2 -9,-8 -84,-13 -223,-14 -182,-2 -213,0 -239,14 -23,14 -43,16 -85,12 -30,-4 -59,-10 -64,-15 -17,-15 -122,-11 -136,6 -9,10 -32,15 -74,15 -39,0 -69,5 -82,15 -11,9 -42,14 -77,15 -74,0 -136,31 -200,99 -42,45 -47,55 -48,98 -3,136 14,156 94,113 z"
       id="path61" />
    <path
       d="m 456,3244 c -11,-29 -6,-119 8,-139 7,-11 16,-42 20,-69 7,-56 29,-96 52,-96 13,0 15,8 9,43 -4,23 -11,46 -16,52 -5,5 -9,52 -9,105 0,98 -7,120 -41,120 -9,0 -20,-7 -23,-16 z"
       id="path63" />
    <path
       d="m 1128,3193 c -14,-2 -32,-11 -38,-19 -7,-8 -27,-14 -44,-14 -35,0 -76,-34 -76,-62 0,-10 30,-32 79,-57 75,-39 85,-41 166,-41 78,0 88,2 110,25 17,16 25,35 25,58 0,33 -3,36 -72,69 -81,38 -110,46 -150,41 z m 92,-113 c 6,-11 8,-25 5,-30 -8,-13 -35,-13 -35,-1 0,5 -10,11 -22,13 -13,2 -24,11 -26,21 -5,26 64,24 78,-3 z"
       id="path65" />
    <path
       d="m 1840,3123 c 1,-46 86,-71 150,-45 8,3 42,11 74,16 33,6 61,17 64,24 3,9 -30,12 -142,12 -80,0 -146,-3 -146,-7 z"
       id="path67" />
    <path
       d="m 693,2348 c -5,-7 -27,-48 -48,-91 -40,-79 -39,-103 1,-95 19,3 62,79 63,111 1,10 8,31 16,46 8,16 11,31 8,35 -10,10 -30,7 -40,-6 z"
       id="path69" />
    <path
       d="m 1230,2296 c 0,-42 5,-61 23,-83 13,-15 44,-66 68,-113 24,-47 69,-115 101,-151 33,-39 81,-115 118,-185 33,-65 72,-134 85,-153 14,-19 25,-47 25,-62 0,-16 5,-29 10,-29 6,0 10,26 10,58 0,52 -5,65 -43,123 -24,35 -58,94 -75,131 -35,74 -106,183 -157,239 -34,38 -105,178 -105,208 0,20 -36,71 -51,71 -5,0 -9,-24 -9,-54 z"
       id="path71" />
    <path
       d="m 535,2038 c -14,-29 -25,-62 -25,-73 0,-12 -5,-26 -11,-32 -7,-7 -14,-47 -16,-90 -2,-43 -9,-88 -15,-100 -8,-16 -8,-26 -1,-35 6,-7 14,-44 17,-82 3,-38 8,-72 11,-74 14,-14 19,21 21,152 1,79 7,152 12,162 40,74 67,224 42,224 -6,0 -22,-24 -35,-52 z"
       id="path73" />
    <path
       d="m 1670,1374 c -12,-25 -19,-48 -16,-51 13,-13 75,27 82,51 15,63 -36,63 -66,0 z"
       id="path75" />
    <path
       d="m 1877,703 c -17,-17 -2,-23 58,-23 51,0 65,3 65,15 0,12 -13,15 -58,15 -32,0 -62,-3 -65,-7 z"
       id="path77" />
    <path
       d="m 1783,459 c -24,-11 -43,-24 -43,-29 0,-15 42,-11 64,5 11,8 30,15 42,15 29,0 54,10 54,21 0,16 -73,8 -117,-12 z"
       id="path79" />
    <path
       d="m 1637,353 c -47,-7 -24,-28 34,-31 59,-3 114,12 104,28 -6,10 -82,11 -138,3 z"
       id="path81" />
  </g>
  <g
     transform="matrix(-0.1,0,0,-0.1,301.5,400)"
     fill="#ffffff"
     stroke="none"
     id="g101">
    <path
       d="m 1074,3698 c -40,-64 -74,-155 -74,-199 0,-55 47,-162 75,-173 31,-12 102,-6 115,9 14,17 6,82 -16,123 -8,15 -14,43 -14,62 -1,19 -7,46 -15,60 -8,14 -14,36 -15,50 0,33 -45,86 -56,68 z"
       id="path85" />
    <path
       d="m 554,3606 c -31,-31 -34,-38 -24,-57 15,-28 14,-142 -1,-171 -7,-13 -15,-30 -19,-38 -4,-8 -20,-18 -37,-22 -46,-12 -58,-46 -58,-167 v -107 l 59,-122 c 33,-67 71,-132 84,-144 13,-13 35,-39 47,-58 15,-23 46,-47 91,-70 l 67,-35 179,-1 c 143,-1 180,2 186,13 11,18 346,24 378,6 12,-7 59,-15 105,-19 46,-4 93,-13 104,-20 12,-9 48,-14 95,-14 48,0 81,-5 88,-12 8,-8 54,-15 117,-19 57,-3 110,-11 117,-17 19,-15 228,-24 245,-10 9,7 13,42 13,123 0,108 -1,113 -26,139 l -27,26 h -191 c -152,1 -195,4 -210,15 -14,10 -45,15 -96,15 -51,0 -82,5 -96,15 -14,11 -49,14 -136,15 -72,0 -119,4 -123,11 -4,6 -5,12 -3,14 2,2 101,5 220,7 194,3 218,1 235,-14 17,-16 42,-18 195,-18 h 176 l 26,31 c 14,17 26,43 26,58 0,15 5,32 11,38 14,14 25,198 15,237 -7,29 -32,34 -62,11 -10,-8 -31,-15 -46,-15 -15,0 -49,-8 -75,-17 -39,-14 -86,-17 -258,-18 -149,0 -216,-4 -232,-13 -38,-21 -191,-27 -243,-8 -25,9 -88,19 -140,23 -53,3 -104,12 -115,19 -11,8 -44,14 -75,14 -33,0 -64,6 -77,15 -15,10 -56,15 -153,17 l -132,3 -27,80 c -32,93 -130,287 -149,293 -7,2 -28,-12 -48,-32 z m -46,-358 c 8,-8 12,-47 12,-108 0,-53 4,-100 9,-105 5,-6 12,-29 16,-52 6,-35 4,-43 -9,-43 -23,0 -45,40 -52,96 -4,27 -13,58 -20,69 -14,20 -19,110 -8,139 7,19 35,21 52,4 z m 770,-96 c 69,-33 72,-36 72,-69 0,-23 -8,-42 -25,-58 -22,-23 -32,-25 -110,-25 -81,0 -91,2 -166,41 -49,25 -79,47 -79,57 0,28 41,62 76,62 17,0 37,6 44,14 27,34 85,27 188,-22 z m 850,-34 c -3,-7 -31,-18 -64,-24 -32,-5 -66,-13 -74,-16 -64,-26 -149,-1 -150,45 0,4 66,7 146,7 112,0 145,-3 142,-12 z"
       id="path87" />
    <path
       d="m 1142,3083 c 2,-10 13,-19 26,-21 12,-2 22,-8 22,-13 0,-12 27,-12 35,1 3,5 1,19 -5,30 -14,27 -83,29 -78,3 z"
       id="path89" />
    <path
       d="m 460,3428 c 0,-13 -7,-36 -15,-52 -24,-46 -20,-64 9,-37 25,24 39,70 30,96 -9,23 -24,18 -24,-7 z"
       id="path91" />
    <path
       d="m 1132,2568 c -9,-9 -69,-14 -204,-16 -176,-2 -195,-4 -232,-25 -22,-12 -46,-32 -52,-45 -6,-12 -20,-33 -31,-45 -10,-12 -40,-66 -67,-119 -61,-126 -150,-471 -159,-621 -4,-53 -12,-107 -18,-119 -8,-15 -8,-30 0,-57 14,-44 19,-76 20,-119 1,-37 64,-113 115,-139 17,-9 46,-29 64,-44 30,-27 39,-29 110,-29 53,0 84,-5 98,-15 26,-19 108,-20 124,0 17,21 103,20 136,-1 26,-18 108,-14 128,6 15,15 52,12 66,-5 18,-22 362,-22 380,0 10,12 36,15 115,15 114,0 116,1 155,80 33,68 38,148 11,202 -11,25 -21,60 -21,80 0,20 -13,59 -30,91 -16,31 -30,68 -30,81 0,14 -13,41 -30,59 -16,19 -40,57 -53,84 -12,27 -33,63 -45,79 -13,16 -45,63 -72,106 -27,42 -85,113 -127,157 -66,68 -88,101 -143,211 -66,132 -77,143 -114,115 -18,-14 -23,-12 -51,15 -25,24 -34,27 -43,18 z M 733,2354 c 3,-4 0,-19 -8,-35 -8,-15 -15,-36 -16,-46 -1,-32 -44,-108 -63,-111 -40,-8 -41,16 -1,95 21,43 43,84 48,91 10,13 30,16 40,6 z m 536,-30 c 12,-15 21,-35 21,-45 0,-30 71,-170 105,-208 51,-56 122,-165 157,-239 17,-37 51,-96 75,-131 38,-58 43,-71 43,-123 0,-32 -4,-58 -10,-58 -5,0 -10,13 -10,29 0,15 -11,43 -25,62 -13,19 -52,88 -85,153 -37,70 -85,146 -118,185 -32,36 -77,104 -101,151 -24,47 -55,98 -68,113 -18,22 -23,41 -23,83 0,60 9,66 39,28 z M 580,2050 c 0,-38 -29,-141 -52,-184 -5,-10 -11,-83 -12,-162 -2,-131 -7,-166 -21,-152 -3,2 -8,36 -11,74 -3,38 -11,75 -17,82 -7,9 -7,19 1,35 6,12 13,57 15,100 2,43 9,83 16,90 6,6 11,20 11,32 0,27 47,125 60,125 5,0 10,-18 10,-40 z m 1155,-641 c 14,-22 -6,-60 -40,-76 -19,-9 -38,-14 -41,-10 -3,3 4,26 16,51 21,45 50,60 65,35 z"
       id="path93" />
    <path
       d="m 910,1085 c -10,-11 -11,-39 -6,-105 4,-50 9,-97 13,-106 7,-20 45,-34 90,-34 20,0 44,-7 54,-16 13,-11 41,-15 119,-16 56,0 104,3 107,6 4,3 -1,14 -10,24 -10,10 -14,22 -10,26 5,4 9,22 11,39 13,160 13,180 0,188 -7,5 -90,9 -184,9 -142,0 -174,-3 -184,-15 z"
       id="path95" />
    <path
       d="m 1550,1008 c 0,-13 7,-32 15,-42 8,-11 15,-41 15,-66 v -47 l -104,-51 c -58,-28 -126,-54 -153,-58 -26,-3 -60,-13 -74,-21 -23,-14 -28,-14 -50,0 -13,9 -49,21 -79,26 -114,21 -177,39 -227,65 l -53,26 v 68 c 0,37 -4,74 -10,82 -7,11 -33,14 -117,14 -99,1 -118,-3 -223,-38 -116,-38 -174,-68 -186,-96 -13,-31 -22,-96 -17,-123 4,-21 17,-32 51,-47 25,-12 57,-23 71,-27 14,-3 50,-17 80,-31 41,-19 55,-22 61,-12 5,8 17,10 31,7 13,-4 49,-11 79,-18 30,-6 64,-16 75,-23 13,-7 102,-12 250,-14 197,-3 231,-6 241,-20 15,-21 140,-19 164,3 21,19 44,19 60,0 16,-19 86,-20 93,-1 3,8 28,15 66,19 34,3 67,10 74,15 7,6 44,13 82,17 39,4 75,11 80,15 6,4 38,10 73,13 51,4 69,11 97,36 20,17 44,31 54,31 31,0 63,44 59,81 -3,29 -10,37 -48,56 -25,13 -58,23 -75,23 -16,0 -42,6 -57,14 -14,8 -45,17 -67,21 -41,7 -53,18 -28,28 17,6 69,-3 85,-16 7,-5 43,-12 81,-15 62,-4 73,-8 99,-36 16,-17 36,-44 43,-61 25,-53 80,-29 65,29 -10,39 -38,63 -85,71 -26,4 -52,18 -70,36 -16,16 -37,29 -46,29 -9,0 -37,6 -63,14 -72,21 -186,37 -304,43 -108,4 -108,4 -108,-19 z m 450,-313 c 0,-12 -14,-15 -65,-15 -60,0 -75,6 -58,23 3,4 33,7 65,7 45,0 58,-3 58,-15 z"
       id="path97" />
    <path
       d="m 332,608 c -11,-14 -15,-47 -13,-121 1,-43 6,-53 48,-98 64,-68 126,-99 200,-99 35,-1 66,-6 77,-15 13,-10 43,-15 82,-15 42,0 65,-5 74,-15 14,-17 119,-21 136,-6 5,5 34,11 64,15 42,4 62,2 85,-12 26,-14 57,-16 239,-14 139,1 214,6 223,14 10,8 20,8 38,-2 18,-10 31,-10 52,-2 15,6 42,13 58,17 48,9 137,36 180,53 66,26 107,73 73,84 -17,6 0,28 23,28 10,0 19,6 19,13 -1,16 -41,62 -69,76 -32,17 -427,13 -463,-5 -35,-18 -88,-17 -112,1 -26,19 -70,19 -86,0 -15,-17 -51,-20 -67,-4 -8,8 -17,7 -32,-2 -16,-11 -23,-11 -33,-1 -15,15 -54,16 -63,2 -9,-14 -178,-13 -193,2 -6,6 -49,13 -94,16 -46,3 -92,11 -103,18 -11,8 -31,14 -45,14 -15,0 -35,7 -46,15 -11,9 -42,14 -77,15 -37,0 -70,7 -94,20 -43,23 -66,25 -81,8 z M 1900,471 c 0,-11 -25,-21 -54,-21 -12,0 -31,-7 -42,-15 -22,-16 -64,-20 -64,-5 0,15 82,48 123,49 20,1 37,-3 37,-8 z M 1775,350 c 10,-16 -45,-31 -104,-28 -58,3 -81,24 -34,31 56,8 132,7 138,-3 z"
       id="path99" />
  </g>
</svg>
